<svg xmlns="http://www.w3.org/2000/svg" width="44" height="44" viewBox="0 0 44 44" fill="none">
  <line x1="10" y1="6" x2="10" y2="38" stroke="#2D8B7A" stroke-width="3" stroke-linecap="round"/>
  <path d="M10 6 L10 6 Q10 6 10 6 L26 6 Q34 6 34 13 Q34 20 26 20 L10 20"
    stroke="#2D8B7A" stroke-width="3" stroke-linecap="round" stroke-linejoin="round" fill="none"/>
  <path d="M10 20 L24 20 Q34 20 34 28 Q34 36 24 36 L16 36 L12 41 L13 36 L10 36 Z"
    stroke="#2D8B7A" stroke-width="2.8" stroke-linecap="round" stroke-linejoin="round" fill="none"/>
  <circle cx="27" cy="28" r="2.2" fill="#4FC3F7"/>
  <path d="M22 25.5 Q24.5 23 27 25.5" stroke="#4FC3F7" stroke-width="1.4" stroke-linecap="round" fill="none"/>
  <path d="M19.5 23.5 Q23.5 20 27 23.5" stroke="#4FC3F7" stroke-width="1.2" stroke-linecap="round" fill="none" opacity="0.6"/>
</svg>
